<svg width="28" height="28" viewBox="0 0 28 28" fill="none" xmlns="http://www.w3.org/2000/svg">
<g id="Messaging/email-outline">
<path id="Icon Artwork" d="M5.2 5H22.8C23.3835 5 23.9431 5.23705 24.3556 5.65901C24.7682 6.08097 25 6.65326 25 7.25V20.75C25 21.3467 24.7682 21.919 24.3556 22.341C23.9431 22.7629 23.3835 23 22.8 23H5.2C3.979 23 3 21.9875 3 20.75V7.25C3 6.00125 3.979 5 5.2 5ZM14 12.875L22.8 7.25H5.2L14 12.875ZM5.2 20.75H22.8V9.91625L14 15.53L5.2 9.91625V20.75Z" fill="#686B6F"/>
</g>
</svg>
