<svg width="28" height="28" viewBox="0 0 28 28" fill="none" xmlns="http://www.w3.org/2000/svg">
<g id="Social / Instagram">
<rect id="Rectangle-path" x="4.62817" y="4.62793" width="18.5465" height="18.5465" fill="black" fill-opacity="0.01"/>
<path id="Shape" fill-rule="evenodd" clip-rule="evenodd" d="M13.9012 6.94629C12.0123 6.94629 11.7755 6.95429 11.0337 6.98813C10.2934 7.0219 9.78776 7.13948 9.34554 7.31142C8.88821 7.48914 8.50032 7.72695 8.11356 8.11359C7.72698 8.50027 7.48907 8.88813 7.31135 9.34548C7.13948 9.78786 7.02194 10.2934 6.98817 11.0337C6.95421 11.7755 6.94629 12.0124 6.94629 13.9012C6.94629 15.7901 6.95421 16.0269 6.98817 16.7687C7.02194 17.509 7.13948 18.0146 7.31135 18.4569C7.48907 18.9143 7.72698 19.3022 8.11356 19.6889C8.50032 20.0755 8.88821 20.3133 9.34554 20.491C9.78776 20.6629 10.2934 20.7805 11.0337 20.8143C11.7755 20.8481 12.0123 20.8561 13.9012 20.8561C15.7901 20.8561 16.0269 20.8481 16.7687 20.8143C17.509 20.7805 18.0145 20.6629 18.4569 20.491C18.9142 20.3133 19.3021 20.0755 19.6889 19.6889C20.0754 19.3022 20.3133 18.9143 20.4911 18.4569C20.6629 18.0146 20.7805 17.509 20.8143 16.7687C20.848 16.0269 20.8561 15.7901 20.8561 13.9012C20.8561 12.0124 20.848 11.7755 20.8143 11.0337C20.7805 10.2934 20.6629 9.78786 20.4911 9.34548C20.3133 8.88813 20.0754 8.50027 19.6889 8.11359C19.3021 7.72695 18.9142 7.48914 18.4569 7.31142C18.0145 7.13948 17.509 7.0219 16.7687 6.98813C16.0269 6.95429 15.7901 6.94629 13.9012 6.94629ZM13.9013 8.19947C15.7584 8.19947 15.9783 8.20657 16.7117 8.24002C17.3898 8.27095 17.758 8.38424 18.0031 8.47949C18.3277 8.60566 18.5594 8.75637 18.8028 8.99976C19.0462 9.24312 19.197 9.47481 19.323 9.79944C19.4183 10.0445 19.5316 10.4128 19.5626 11.0909C19.5959 11.8242 19.6031 12.0442 19.6031 13.9013C19.6031 15.7583 19.5959 15.9782 19.5626 16.7117C19.5316 17.3897 19.4183 17.758 19.323 18.0031C19.197 18.3277 19.0462 18.5594 18.8028 18.8027C18.5594 19.0461 18.3277 19.1968 18.0031 19.323C17.758 19.4183 17.3898 19.5316 16.7117 19.5625C15.9783 19.596 15.7585 19.6031 13.9013 19.6031C12.0441 19.6031 11.8241 19.596 11.091 19.5625C10.4127 19.5316 10.0445 19.4183 9.79957 19.323C9.47487 19.1968 9.2432 19.0461 8.99982 18.8027C8.75645 18.5594 8.6057 18.3277 8.47948 18.0031C8.38421 17.758 8.27101 17.3897 8.24007 16.7117C8.20667 15.9782 8.1995 15.7583 8.1995 13.9013C8.1995 12.0442 8.20667 11.8242 8.24007 11.0909C8.27101 10.4128 8.38421 10.0445 8.47948 9.79944C8.6057 9.47481 8.75645 9.24312 8.99982 8.99976C9.2432 8.75637 9.47487 8.60566 9.79957 8.47949C10.0445 8.38424 10.4127 8.27095 11.091 8.24002C11.8243 8.20657 12.0443 8.19947 13.9013 8.19947ZM13.9011 10.3298C11.9286 10.3298 10.3297 11.9288 10.3297 13.9012C10.3297 15.8737 11.9286 17.4727 13.9011 17.4727C15.8736 17.4727 17.4725 15.8737 17.4725 13.9012C17.4725 11.9288 15.8736 10.3298 13.9011 10.3298ZM13.9012 16.2196C12.6207 16.2196 11.5829 15.1817 11.5829 13.9013C11.5829 12.6209 12.6207 11.583 13.9012 11.583C15.1814 11.583 16.2195 12.6209 16.2195 13.9013C16.2195 15.1817 15.1814 16.2196 13.9012 16.2196ZM18.4485 10.1887C18.4485 10.6496 18.075 11.0233 17.614 11.0233C17.1531 11.0233 16.7794 10.6496 16.7794 10.1887C16.7794 9.72776 17.1531 9.35408 17.614 9.35408C18.075 9.35408 18.4485 9.72776 18.4485 10.1887Z" fill="black"/>
</g>
</svg>
