<svg width="28" height="28" viewBox="0 0 28 28" fill="none" xmlns="http://www.w3.org/2000/svg">
<rect x="4.62793" y="4.62793" width="18.5465" height="18.5465" fill="black" fill-opacity="0.01"/>
<path fill-rule="evenodd" clip-rule="evenodd" d="M8.58361 10.633H8.56398C7.58257 10.633 6.94629 9.99096 6.94629 9.17708C6.94629 8.34737 7.60138 7.71875 8.60242 7.71875C9.60264 7.71875 10.2177 8.34578 10.2373 9.17471C10.2373 9.98858 9.60264 10.633 8.58361 10.633ZM20.8563 20.083H17.782V15.7365C17.782 14.5988 17.3011 13.8222 16.2436 13.8222C15.4348 13.8222 14.985 14.3463 14.7757 14.8513C14.7065 15.011 14.7077 15.2261 14.709 15.4477V15.4477C14.7092 15.4776 14.7094 15.5077 14.7094 15.5378V20.083H11.6637C11.6637 20.083 11.703 12.3836 11.6637 11.6837H14.7094V13.002C14.8893 12.4255 15.8626 11.603 17.4156 11.603C19.3424 11.603 20.8563 12.8112 20.8563 15.4127V20.083ZM10.0084 11.6836H7.29727V20.0829H10.0084V11.6836Z" fill="black"/>
</svg>
