<svg width="28" height="28" viewBox="0 0 28 28" fill="none" xmlns="http://www.w3.org/2000/svg">
<rect x="4.62793" y="4.62793" width="18.5465" height="18.5465" fill="black" fill-opacity="0.01"/>
<path fill-rule="evenodd" clip-rule="evenodd" d="M6.63732 7.91428H6.61769C5.63628 7.91428 5 7.27221 5 6.45833C5 5.62862 5.65509 5 6.65613 5C7.65635 5 8.27137 5.62703 8.29099 6.45596C8.29099 7.26983 7.65635 7.91428 6.63732 7.91428ZM18.91 17.3642H15.8357V13.0177C15.8357 11.8801 15.3549 11.1034 14.2973 11.1034C13.4885 11.1034 13.0387 11.6275 12.8294 12.1326C12.7602 12.2923 12.7614 12.5073 12.7627 12.7289V12.7289C12.7629 12.7589 12.7631 12.789 12.7631 12.819V17.3642H9.71744C9.71744 17.3642 9.7567 9.66483 9.71744 8.96498H12.7631V10.2832C12.943 9.7068 13.9163 8.88423 15.4693 8.88423C17.3961 8.88423 18.91 10.0924 18.91 12.6939V17.3642ZM8.06213 8.96483H5.35098V17.3641H8.06213V8.96483Z" fill="black"/>
</svg>
