<svg width="24" height="24" viewBox="0 0 24 24" fill="none" xmlns="http://www.w3.org/2000/svg">
<path d="M14.6411 22.0236C13.4806 22.0198 12.5416 21.0782 12.5411 19.9176V17.8106H14.6411C15.8048 17.8106 16.7481 18.754 16.7481 19.9176C16.7481 21.0813 15.8048 22.0246 14.6411 22.0246V22.0236ZM9.3591 22.0236C8.19856 22.0198 7.25964 21.0782 7.2591 19.9176V14.6436C7.2591 13.8921 7.66002 13.1977 8.31085 12.8219C8.96167 12.4462 9.76352 12.4462 10.4143 12.8219C11.0652 13.1977 11.4661 13.8921 11.4661 14.6436V19.9176C11.4655 21.0809 10.5224 22.0236 9.3591 22.0236ZM19.9091 16.7506H14.6411C13.4777 16.7506 12.5346 15.8075 12.5346 14.6441C12.5346 13.4807 13.4777 12.5376 14.6411 12.5376H19.9091C21.0725 12.5376 22.0156 13.4807 22.0156 14.6441C22.0156 15.8075 21.0725 16.7506 19.9091 16.7506ZM4.0921 16.7506C2.92871 16.7506 1.9856 15.8075 1.9856 14.6441C1.9856 13.4807 2.92871 12.5376 4.0921 12.5376H6.1921V14.6436C6.1921 15.8065 5.24998 16.7495 4.0871 16.7506H4.0921ZM19.9091 11.4616H17.8091V9.35562C17.8124 8.1966 18.7541 7.25941 19.9131 7.26162C21.0721 7.26383 22.0102 8.2046 22.0091 9.36361C22.008 10.5226 21.0681 11.4616 19.9091 11.4616ZM14.6411 11.4616C13.4806 11.4578 12.5416 10.5162 12.5411 9.35562V4.08162C12.5411 3.33011 12.942 2.63569 13.5928 2.25993C14.2437 1.88418 15.0455 1.88418 15.6963 2.25993C16.3472 2.63569 16.7481 3.33011 16.7481 4.08162V9.35562C16.7475 10.5189 15.8044 11.4616 14.6411 11.4616ZM9.3591 11.4616H4.0921C2.92871 11.4616 1.9856 10.5185 1.9856 9.35512C1.9856 8.19173 2.92871 7.24862 4.0921 7.24862H9.3591C10.5225 7.24862 11.4656 8.19173 11.4656 9.35512C11.4656 10.5185 10.5225 11.4616 9.3591 11.4616ZM11.4591 6.18862H9.3591C8.50685 6.19104 7.73715 5.67958 7.40923 4.89294C7.08131 4.1063 7.25982 3.19957 7.86145 2.59594C8.46308 1.9923 9.36922 1.81077 10.1569 2.13607C10.9447 2.46137 11.4587 3.22936 11.4591 4.08162V6.18762V6.18862Z" fill="url(#paint0_linear)"/>
<defs>
<linearGradient id="paint0_linear" x1="2" y1="2" x2="22" y2="22" gradientUnits="userSpaceOnUse">
<stop stop-color="#89B0BF"/>
<stop offset="1" stop-color="#F38E86"/>
</linearGradient>
</defs>
</svg>
