<svg width="28" height="28" viewBox="0 0 28 28" fill="none" xmlns="http://www.w3.org/2000/svg">
<rect x="4.62793" y="4.62793" width="18.5465" height="18.5465" fill="black" fill-opacity="0.01"/>
<path fill-rule="evenodd" clip-rule="evenodd" d="M20.982 11.7767C19.3891 6.46581 17.0877 5.22696 11.7768 6.82032C6.46646 8.41319 5.22713 10.7146 6.82049 16.0255C8.41384 21.3358 10.7153 22.5752 16.0256 20.9818C21.3365 19.3885 22.5754 17.0871 20.982 11.7767ZM18.2962 15.2245L17.295 15.5596L17.6417 16.5961C17.7823 17.0154 17.5563 17.4694 17.1366 17.6099C17.0452 17.6409 16.9525 17.6538 16.8617 17.6514C16.5343 17.6428 16.2324 17.4331 16.1228 17.1047L15.7755 16.0687L13.7107 16.7604L14.0575 17.7963C14.1981 18.216 13.9721 18.67 13.5523 18.8106C13.461 18.841 13.3683 18.8541 13.2775 18.8516C12.9501 18.8434 12.6482 18.6333 12.5386 18.3054L12.1913 17.2689L11.1901 17.6046C11.0988 17.6351 11.0056 17.648 10.9148 17.6456C10.5878 17.6375 10.2859 17.4273 10.1758 17.0989C10.0353 16.6797 10.2613 16.2257 10.681 16.0851L11.6827 15.7495L11.0167 13.762L10.0155 14.0977C9.92417 14.1281 9.83144 14.1411 9.74016 14.1387C9.41318 14.1306 9.11131 13.9204 9.00119 13.592C8.86065 13.1728 9.08716 12.7188 9.5064 12.5782L10.5081 12.2425L10.1608 11.2065C10.0203 10.7868 10.2463 10.3328 10.666 10.1928C11.0857 10.0522 11.5397 10.2782 11.6803 10.698L12.0271 11.734L14.0923 11.0423L13.745 10.0063C13.6045 9.58662 13.831 9.13262 14.2503 8.99207C14.67 8.85152 15.124 9.07804 15.2645 9.49726L15.6113 10.5337L16.613 10.1981C17.0327 10.0575 17.4862 10.284 17.6267 10.7033C17.7673 11.123 17.5413 11.577 17.1216 11.7175L16.1204 12.0527L16.7859 14.0407L17.7876 13.705C18.2068 13.565 18.6609 13.791 18.8014 14.2102C18.9419 14.6299 18.7159 15.0839 18.2962 15.2245ZM13.2014 15.2406L12.5359 13.2531L14.6011 12.5614L15.2667 14.5489L13.2014 15.2406Z" fill="black"/>
</svg>
